# xmcd
#
# Track frame offsets: 
#        150
#        13022
#        26160
#        41522
#        52300
#        65400
#        82347
#        97462
#        110725
#        128505
#        141000
#        153545
#        169970
#        187027
#        200887
#
# Disc length: 2860 seconds
#
# Revision: 0
# Processed by: cddbd v1.5.2PL0 Copyright (c) Steve Scherf et al.
# Submitted via: ExactAudioCopy v1.3
#
DISCID=eb0b2a0f
DTITLE=Chico Chism - Chico Chism's West Side Chicago Blues Party
DYEAR=2006
DGENRE=Blues
TTITLE0=Eddie Shaw and The Wolf Gang - I Don't Trust Nobody
TTITLE1=Highway Man - I Walked From Dallas
TTITLE2=Chico Chism - Coo Fannie Coo
TTITLE3=Eddie Shaw and The Wolf Gang - I Got To Tell Somebody
TTITLE4=Eddie Shaw and The Wolf Gang - Bluesman Of Yesterday
TTITLE5=Eddie Burks - Operator
TTITLE6=Highway Man - Don't Laugh At Me
TTITLE7=Eddie Shaw and The Wolf Gang - This Little Voice
TTITLE8=Eddie Shaw and The Wolf Gang - Big Leg Woman
TTITLE9=Willie Davis - Why'd You Leave Me Baby
TTITLE10=Eddie Shaw and The Wolf Gang - I Can't Stop Loving You
TTITLE11=Highway Man - Louise
TTITLE12=Highway Man - Killing Floor
TTITLE13=Eddie Burks - Evalina
TTITLE14=Eddie Shaw and The Wolf Gang - I Got To Tell Somebody (Alternat
TTITLE14=e Version)
EXTD=
EXTT0=
EXTT1=
EXTT2=
EXTT3=
EXTT4=
EXTT5=
EXTT6=
EXTT7=
EXTT8=
EXTT9=
EXTT10=
EXTT11=
EXTT12=
EXTT13=
EXTT14=
PLAYORDER=
